<?xml version="1.0" encoding="iso-8859-1"?>
<!-- Generator: Adobe Illustrator 19.0.0, SVG Export Plug-In . SVG Version: 6.00 Build 0)  -->
<svg version="1.1" id="Layer_1" xmlns="http://www.w3.org/2000/svg" xmlns:xlink="http://www.w3.org/1999/xlink" x="0px" y="0px"
	 viewBox="0 0 125 125" style="enable-background:new 0 0 125 125;" xml:space="preserve">
<g>
	<g>
		<path d="M118.422,13.179H7.136C3.001,13.179,0,15.757,0,19.31v16.344c0,0.553,0.448,1,1,1h123c0.552,0,1-0.447,1-0.999V19.31
			C125,15.643,122.357,13.179,118.422,13.179z M123,34.654H2V19.31c0-2.712,2.584-4.131,5.136-4.131h111.286
			c2.824,0,4.578,1.583,4.578,4.131V34.654z"/>
	</g>
</g>
<g>
	<g>
		<path d="M120.096,34.654c-0.552,0-1,0.447-1,1v68.584c0,2.641-1.88,5.583-4.578,5.583H11.041c-2.544,0-5.136-2.817-5.136-5.583
			V35.654c0-0.553-0.448-1-1-1c-0.552,0-1,0.447-1,1v68.584c0,3.897,3.468,7.583,7.136,7.583h103.477
			c3.935,0,6.578-3.921,6.578-7.583V35.654C121.096,35.101,120.648,34.654,120.096,34.654z"/>
	</g>
</g>
<g>
	<g>
		<path d="M82.023,44.418H42.976c-3.781,0-6.857,3.076-6.857,6.856c0,3.781,3.076,6.857,6.857,6.857h39.047
			c3.782,0,6.858-3.076,6.857-6.857C88.88,47.494,85.804,44.418,82.023,44.418z M82.023,56.13H42.976
			c-2.678,0-4.857-2.178-4.857-4.857c0-2.677,2.179-4.856,4.857-4.856h39.047c2.678,0,4.857,2.178,4.857,4.856
			C86.88,53.951,84.701,56.13,82.023,56.13z"/>
	</g>
</g>
<g>
	<g>
		<path d="M115.214,19.036H1c-0.552,0-1,0.447-1,1c0,0.553,0.448,1,1,1h114.214c0.552,0,1-0.447,1-1
			C116.214,19.483,115.766,19.036,115.214,19.036z"/>
	</g>
</g>
<g>
</g>
<g>
</g>
<g>
</g>
<g>
</g>
<g>
</g>
<g>
</g>
<g>
</g>
<g>
</g>
<g>
</g>
<g>
</g>
<g>
</g>
<g>
</g>
<g>
</g>
<g>
</g>
<g>
</g>
</svg>
