<svg xmlns="http://www.w3.org/2000/svg" version="1.1" xmlns:xlink="http://www.w3.org/1999/xlink" xmlns:svgjs="http://svgjs.dev/svgjs" width="100%" height="100%" viewBox="0 0 1000 600"><rect width="1000" height="600" x="0" y="0" fill="  #DED5D0"/><g><rect width="333.3333333333333" height="333.3333333333333" rx="13.333333333333334" ry="13.333333333333334" y="176.59010614052792" fill="#ca9e93" transform="matrix(0.8097538968912052,0,0,0.8097538968912052,0,22.046488829688485)" x="154.3678894042969"/><path d="M302.37136250593977 418.2567628762081L278.6445107239265 418.2567628762081L278.6445107239265 268.256763317724L363.42460306697404 268.256763317724L363.42460306697404 288.2509762218352L302.37136250593977 288.2509762218352L302.37136250593977 336.80421681966243L355.0912697581694 336.80421681966243L352.1688160630677 355.5542167644729L302.37136250593977 355.5542167644729L302.37136250593977 418.2567628762081Z " fill="  #DED5D0" transform="matrix(0.8097538968912052,0,0,0.8097538968912052,0,22.046488829688485)"/><path d="M571.0345558651296 415.84824359763587L571.0345558651296 415.84824359763587L571.0345558651296 271.67349001275716Q595.4277591231772 269.46101807546006 626.0662945586586 269.46101807546006L626.0662945586586 269.46101807546006Q652.0838443023167 269.46101807546006 668.7193927928796 287.41284733884527Q685.3549412834425 305.3366706283407 685.3549412834425 340.932263442323Q685.3549412834425 376.5278562563053 668.2152852628626 396.804181352547Q651.0756292422826 417.05250047489886 615.7881021410884 417.05250047489886Q580.5005750398944 417.05250047489886 571.0345558651296 415.84824359763587ZM593.9994544547957 288.81314603333715L593.9994544547957 398.0924561514795Q606.098035175205 398.9046293942847 620.6331356240302 398.9046293942847L620.6331356240302 398.9046293942847Q643.4019923964673 398.9046293942847 652.5879518323337 384.08946920656115Q661.7739112682001 369.27430901883764 661.7739112682001 340.6241977295348Q661.7739112682001 312.0020924141218 651.3836949550708 299.79148779815307Q640.9934786419414 287.60888915607416 622.4535239268696 287.60888915607416L622.4535239268696 287.60888915607416Q614.163755655478 287.60888915607416 593.9994544547957 288.81314603333715L593.9994544547957 288.81314603333715ZM804.5203601846972 415.84824359763587L719.2421696901448 415.84824359763587L719.2421696901448 270.665274952723L803.3161033074342 270.665274952723L803.3161033074342 289.42927745891353L742.2070682798109 289.42927745891353L742.2070682798109 333.3706504920671L795.2503828271613 333.3706504920671L795.2503828271613 350.93039612099466L742.2070682798109 350.93039612099466L742.2070682798109 397.0842410914454L807.3489635475707 397.0842410914454L804.5203601846972 415.84824359763587ZM826.3090078709902 342.64062784960305L826.3090078709902 342.64062784960305Q826.3090078709902 297.0749083308389 855.7432864292084 278.3389117985382L855.7432864292084 278.3389117985382Q871.2585959641779 268.25676119819707 893.8594168932759 268.25676119819707L893.8594168932759 268.25676119819707Q916.2361900312553 268.25676119819707 936.0084075974801 275.51030843566474L936.0084075974801 275.51030843566474Q938.6129631692348 276.51852349569884 938.8090049864636 276.51852349569884L938.8090049864636 276.51852349569884L932.9837624173776 294.24630496796544Q932.759714626259 294.24630496796544 930.2391769761737 293.5461556207195Q927.7186393260884 292.84600627347356 925.198101676003 292.1458569262277Q922.6775640259177 291.44570757898174 918.6447037857813 290.63353433617647Q914.6118435456449 289.82136109337125 910.9990729138559 289.2052296677948L910.9990729138559 289.2052296677948Q902.933352433583 287.60888915607416 893.8594168932759 287.60888915607416L893.8594168932759 287.60888915607416Q871.2585959641779 287.60888915607416 860.8963856249384 300.2955953281701Q850.5061693118089 313.0103074741559 850.5061693118089 343.0607174579506L850.5061693118089 343.0607174579506Q850.5061693118089 377.1439876818817 862.4087082149895 388.62643697671473L862.4087082149895 388.62643697671473Q868.4579985751942 394.4796855196906 875.7115458126618 396.6921574569876Q882.9650930501296 398.9046293942847 893.2432854676995 398.9046293942847L893.2432854676995 398.9046293942847Q912.00728797389 398.9046293942847 932.9837624173776 391.4550403395882L932.9837624173776 391.4550403395882L938.8090049864636 409.7989532374312L933.5718878690643 411.42329972304174Q911.8112461566612 418.2567573521618 888.8183415931054 418.2567573521618L888.8183415931054 418.2567573521618Q858.7679316093107 418.2567573521618 842.5244667532055 399.1006712115136Q826.3090078709902 379.9445850708654 826.3090078709902 342.64062784960305ZM1012.0166207344965 418.2567573521618L1012.0166207344965 418.2567573521618Q986.4191605991858 418.2567573521618 969.5595643175043 399.60477874153065Q952.7279740097124 380.9528001308995 952.7279740097124 345.1611654996883Q952.7279740097124 309.36953086847717 969.8676300302925 288.81314603333715Q987.0072860508725 268.25676119819707 1021.2865980920325 268.25676119819707L1021.2865980920325 268.25676119819707Q1047.1081060184615 268.25676119819707 1063.8276724306943 286.68469201770955Q1080.5752448168164 305.14062881111187 1080.5752448168164 340.932263442323Q1080.5752448168164 376.7238980735342 1063.4355887962365 397.50433069979294Q1046.2959327756562 418.2567573521618 1012.0166207344965 418.2567573521618ZM1015.8534391574042 398.9046293942847L1015.8534391574042 398.9046293942847Q1038.6222959298411 398.9046293942847 1047.8082553657077 384.08946920656115Q1056.994214801574 369.27430901883764 1056.994214801574 340.6241977295348Q1056.994214801574 312.0020924141218 1046.6039984884446 299.79148779815307Q1036.2137821753154 287.60888915607416 1017.6738274602435 287.60888915607416L1017.6738274602435 287.60888915607416Q994.4848810794588 287.60888915607416 985.4109455391518 303.54428829939116L985.4109455391518 303.54428829939116Q977.1211772677602 318.2474245915554 977.1211772677602 346.16938055972247Q977.1211772677602 374.1193425017794 987.4273756592199 386.49798296108713Q997.7055680767901 398.9046293942847 1015.8534391574042 398.9046293942847Z " fill="#ca9e93" transform="matrix(0.8097538968912052,0,0,0.8097538968912052,0,22.046488829688485)"/></g></svg>